<?xml version="1.0" standalone="no"?>
<!DOCTYPE svg PUBLIC "-//W3C//DTD SVG 20010904//EN"
 "http://www.w3.org/TR/2001/REC-SVG-20010904/DTD/svg10.dtd">
<svg version="1.0" xmlns="http://www.w3.org/2000/svg"
 width="792.000000pt" height="565.000000pt" viewBox="0 0 792.000000 565.000000"
 preserveAspectRatio="xMidYMid meet">

<g transform="translate(0.000000,565.000000) scale(0.100000,-0.100000)"
fill="#000000" stroke="none">
<path d="M4967 4305 c-36 -584 -469 -1067 -1045 -1166 -412 -70 -804 64 -1103
378 -46 49 -110 127 -141 173 -55 83 -129 225 -141 271 -3 13 -9 20 -12 17
-10 -9 42 -154 95 -265 221 -465 659 -813 1161 -922 424 -91 779 -19 1069 218
165 135 276 296 341 496 30 94 32 109 32 245 0 128 -3 157 -27 245 -34 122
-100 261 -167 349 -27 36 -51 66 -53 66 -2 0 -6 -47 -9 -105z"/>
<path d="M2678 2298 c-69 -9 -125 -36 -174 -85 -91 -90 -113 -239 -54 -359 55
-112 135 -158 275 -158 76 -1 98 3 146 25 66 31 124 88 153 149 26 58 28 196
3 253 -57 130 -188 196 -349 175z m118 -117 c22 -10 50 -31 62 -46 66 -83 49
-250 -31 -307 -36 -26 -116 -35 -157 -18 -137 57 -144 300 -10 368 53 27 82
27 136 3z"/>
<path d="M7268 2298 c-69 -9 -125 -36 -174 -85 -91 -90 -113 -239 -54 -359 55
-112 135 -158 275 -158 76 -1 98 3 146 25 66 31 124 88 153 149 26 58 28 196
3 253 -57 130 -188 196 -349 175z m118 -117 c22 -10 50 -31 62 -46 66 -83 49
-250 -31 -307 -36 -26 -116 -35 -157 -18 -137 57 -144 300 -10 368 53 27 82
27 136 3z"/>
<path d="M4428 2293 l-38 -4 0 -295 0 -294 65 0 65 0 0 115 0 115 48 0 c78 0
91 -15 132 -157 l21 -73 74 0 c73 0 74 0 65 23 -5 12 -21 62 -35 111 -19 64
-35 98 -57 120 -18 17 -26 32 -19 34 25 8 69 53 81 82 7 18 10 52 8 82 -5 46
-11 57 -46 89 -30 26 -57 39 -98 48 -54 10 -184 12 -266 4z m227 -108 c47 -19
62 -58 41 -102 -18 -37 -67 -57 -131 -51 l-40 3 -3 69 c-2 38 -1 75 2 83 7 18
87 17 131 -2z"/>
<path d="M6395 2292 l-40 -7 0 -290 0 -290 80 -8 c178 -16 335 23 415 102 57
57 80 119 80 215 0 126 -60 211 -180 258 -44 16 -82 21 -185 24 -71 1 -148 -1
-170 -4z m301 -125 c61 -31 88 -81 87 -163 -1 -70 -18 -108 -67 -152 -39 -34
-117 -56 -181 -50 l-40 3 -3 192 -2 192 37 3 c55 4 135 -7 169 -25z"/>
<path d="M651 2268 c-16 -43 -191 -560 -191 -564 0 -2 33 -4 73 -4 l73 0 23
80 24 80 97 0 98 0 27 -80 27 -80 74 0 c41 0 74 3 74 6 0 3 -45 134 -100 291
-55 157 -100 287 -100 289 0 2 -43 4 -95 4 -90 0 -96 -1 -104 -22z m135 -190
c19 -57 34 -106 34 -110 0 -5 -31 -8 -70 -8 -38 0 -70 3 -70 8 0 16 64 221 68
217 3 -3 20 -51 38 -107z"/>
<path d="M1140 1995 l0 -295 200 0 200 0 0 60 0 60 -130 0 -130 0 0 235 0 235
-70 0 -70 0 0 -295z"/>
<path d="M1656 2248 c-3 -24 -10 -131 -16 -238 -6 -107 -13 -221 -16 -252 l-6
-58 66 0 c36 0 66 1 67 3 0 1 6 112 13 247 l12 245 28 -115 c15 -63 44 -171
64 -240 l37 -125 55 -3 55 -3 52 153 c29 84 65 194 80 243 l28 90 6 -180 c4
-99 7 -210 8 -247 l1 -68 70 0 c39 0 70 3 70 8 0 4 -7 122 -15 262 -8 140 -15
270 -15 288 l0 32 -98 0 -99 0 -56 -167 c-30 -93 -58 -183 -62 -201 -4 -18 -9
-31 -12 -28 -3 2 -17 53 -32 113 -15 59 -41 147 -56 196 l-29 87 -97 0 -98 0
-5 -42z"/>
<path d="M3120 2286 c0 -3 38 -66 85 -140 47 -75 85 -140 85 -146 0 -5 -40
-73 -90 -150 -49 -77 -90 -142 -90 -145 0 -3 36 -5 80 -5 l80 0 52 105 c29 58
55 105 58 105 3 0 29 -46 58 -101 30 -55 59 -102 66 -105 7 -3 45 -4 84 -2
l72 3 -85 134 c-47 73 -90 142 -96 152 -7 14 0 33 34 86 24 37 65 101 90 141
l47 72 -83 0 -84 0 -48 -100 c-26 -55 -49 -100 -51 -100 -2 0 -26 45 -54 100
l-50 100 -80 0 c-44 0 -80 -2 -80 -4z"/>
<path d="M3806 2003 c-53 -158 -96 -292 -96 -296 0 -4 32 -7 72 -5 l71 3 21
75 22 75 99 0 99 0 25 -77 25 -78 78 0 77 0 -60 173 c-34 94 -80 226 -103 292
l-42 120 -96 3 -96 3 -96 -288z m264 -40 c0 -2 -34 -3 -76 -3 -63 0 -75 3 -70
15 3 8 17 54 31 102 15 49 29 95 32 103 3 11 81 -193 83 -217z"/>
<path d="M4950 1995 l0 -295 70 0 70 0 0 295 0 295 -70 0 -70 0 0 -295z"/>
<path d="M5210 1995 l0 -295 70 0 70 0 0 120 0 120 120 0 120 0 0 55 0 55
-120 0 -120 0 0 65 0 65 130 0 130 0 0 55 0 55 -200 0 -200 0 0 -295z"/>
<path d="M5776 2003 c-53 -158 -96 -292 -96 -296 0 -4 32 -7 72 -5 l71 3 21
75 22 75 99 0 99 0 25 -77 25 -78 78 0 77 0 -60 173 c-34 94 -80 226 -103 292
l-42 120 -96 3 -96 3 -96 -288z m264 -40 c0 -2 -34 -3 -76 -3 -63 0 -75 3 -70
15 3 8 17 54 31 102 15 49 29 95 32 103 3 11 81 -193 83 -217z"/>
<path d="M2451 1264 c-27 -34 -26 -44 2 -44 13 0 38 15 57 35 l34 35 -36 0
c-28 0 -42 -7 -57 -26z"/>
<path d="M3857 1213 c-2 -5 -10 -32 -17 -61 -10 -44 -15 -52 -31 -47 -63 20
-161 -57 -173 -137 -15 -102 57 -163 127 -108 30 24 37 25 37 5 0 -10 10 -15
29 -15 28 0 29 3 36 53 4 28 18 105 31 171 13 65 24 125 24 132 0 15 -55 20
-63 7z m-49 -161 c17 -11 6 -80 -19 -121 -39 -65 -102 -23 -77 51 14 41 27 58
53 68 26 11 28 11 43 2z"/>
<path d="M5407 1213 c-13 -23 -59 -303 -54 -324 12 -45 85 -63 150 -35 91 37
136 177 76 232 -26 23 -84 22 -111 -3 -21 -18 -21 -18 -14 17 4 19 9 54 13 78
6 42 5 42 -25 42 -17 0 -33 -3 -35 -7z m118 -222 c-1 -46 -5 -57 -29 -77 -49
-43 -81 -23 -70 45 9 57 39 93 73 89 25 -3 26 -6 26 -57z"/>
<path d="M5311 1181 c-27 -38 -26 -43 5 -39 16 2 37 16 52 36 l25 32 -31 0
c-22 0 -36 -8 -51 -29z"/>
<path d="M2324 1034 c-43 -91 -80 -170 -82 -175 -2 -5 13 -9 33 -9 33 0 37 4
55 45 l19 45 56 0 55 0 0 -45 0 -45 41 0 c41 0 41 0 36 33 -3 17 -13 96 -23
175 l-18 142 -46 0 -47 0 -79 -166z m127 26 l3 -65 -37 -3 c-25 -2 -37 1 -37
10 0 23 54 138 61 130 4 -4 9 -36 10 -72z"/>
<path d="M4315 1190 c-8 -13 -64 -293 -65 -323 0 -15 7 -18 32 -15 31 3 33 6
43 58 l10 55 65 11 c54 10 70 18 97 48 42 45 45 101 9 143 -22 25 -31 28 -104
31 -56 3 -82 0 -87 -8z m123 -56 c47 -33 6 -104 -60 -104 -29 0 -29 0 -22 48
10 73 34 90 82 56z"/>
<path d="M2685 1101 c-72 -18 -125 -86 -125 -160 0 -73 72 -117 126 -76 10 8
22 15 25 15 14 0 -5 -50 -27 -71 -19 -18 -31 -21 -74 -17 -44 4 -50 3 -50 -13
0 -11 -1 -22 -2 -26 -5 -12 57 -24 99 -18 60 9 100 45 117 108 25 92 48 239
40 247 -14 12 -95 19 -129 11z m53 -71 c9 -61 -38 -138 -76 -126 -47 15 -27
116 28 143 32 16 44 12 48 -17z"/>
<path d="M3221 1099 c-50 -15 -87 -46 -107 -92 -26 -57 -24 -110 5 -141 31
-33 71 -33 110 0 30 25 31 25 31 5 0 -17 6 -21 30 -21 23 0 30 5 30 19 0 11 9
66 20 122 11 56 19 103 18 104 -11 9 -109 12 -137 4z m51 -85 c-2 -21 -11 -55
-20 -74 -14 -28 -23 -35 -47 -35 -27 0 -30 3 -33 38 -4 42 26 93 62 107 33 14
41 6 38 -36z"/>
<path d="M3443 1099 c-37 -11 -63 -43 -63 -77 0 -21 11 -35 72 -87 16 -13 17
-19 7 -32 -10 -11 -24 -13 -55 -8 -34 5 -43 3 -48 -12 -17 -42 83 -59 141 -23
59 36 56 95 -8 136 -21 13 -39 28 -39 33 0 19 31 33 59 28 24 -5 31 -2 36 14
4 11 5 23 2 25 -10 11 -74 12 -104 3z"/>
<path d="M4019 1100 c-71 -21 -109 -75 -109 -153 0 -63 30 -97 90 -104 89 -9
160 57 160 149 0 62 -13 86 -55 104 -38 15 -48 16 -86 4z m56 -60 c23 -26 15
-93 -16 -126 -26 -28 -42 -30 -63 -8 -30 30 -11 119 31 143 25 14 27 14 48 -9z"/>
<path d="M4655 1101 c-84 -21 -135 -88 -135 -178 0 -39 37 -83 70 -83 26 0 80
27 80 40 0 6 5 10 11 10 6 0 8 -9 4 -20 -6 -17 -2 -20 29 -20 34 0 36 2 36 33
0 17 7 72 16 120 9 48 15 89 13 91 -10 9 -97 13 -124 7z m45 -63 c0 -36 -21
-101 -38 -120 -8 -10 -26 -18 -38 -18 -33 0 -41 40 -18 91 26 59 94 92 94 47z"/>
<path d="M4942 1099 c-13 -5 -32 -19 -43 -32 l-18 -22 -1 28 c0 23 -4 27 -30
27 -27 0 -30 -3 -31 -32 0 -18 -8 -75 -18 -126 l-18 -93 35 3 c35 3 36 4 48
65 16 80 28 100 68 117 23 9 35 22 38 40 6 32 0 36 -30 25z"/>
<path d="M5095 1101 c-78 -19 -126 -75 -133 -156 -4 -47 -1 -57 21 -79 15 -14
36 -26 47 -26 26 0 62 18 73 36 12 21 26 17 20 -6 -5 -17 0 -20 31 -20 35 0
36 1 36 38 0 20 7 74 16 120 9 45 15 84 13 86 -10 9 -97 13 -124 7z m42 -58
c8 -21 -14 -103 -34 -125 -22 -25 -60 -23 -68 2 -13 42 8 91 55 123 31 21 39
21 47 0z"/>
<path d="M5745 1099 c-74 -18 -125 -86 -125 -167 0 -85 66 -119 129 -66 30 25
31 25 31 5 0 -17 6 -21 35 -21 l35 0 0 49 c0 27 7 82 15 122 9 40 14 73 13 74
-11 9 -100 11 -133 4z m48 -84 c-2 -21 -11 -54 -20 -74 -15 -29 -23 -36 -48
-36 -27 0 -30 3 -33 35 -3 41 27 96 61 110 34 13 42 6 40 -35z"/>
<path d="M2865 1078 c-20 -90 -25 -118 -25 -159 0 -76 49 -101 118 -59 26 16
32 17 32 5 0 -10 10 -15 30 -15 17 0 30 1 30 3 1 1 11 57 24 125 l22 123 -35
-3 -35 -3 -13 -70 c-7 -38 -21 -81 -31 -95 -22 -30 -59 -38 -68 -16 -6 14 9
125 22 169 4 14 -1 17 -30 17 -29 0 -37 -4 -41 -22z"/>
<path d="M5261 1048 c-6 -29 -17 -86 -25 -126 l-13 -73 35 3 35 3 17 85 c33
167 34 160 -5 160 -33 0 -34 -2 -44 -52z"/>
<path d="M4335 720 c-3 -5 1 -10 9 -10 8 0 18 5 21 10 3 6 -1 10 -9 10 -8 0
-18 -4 -21 -10z"/>
<path d="M5047 670 c-5 -24 -12 -30 -32 -30 -38 0 -77 -43 -73 -82 4 -39 30
-58 58 -40 12 7 20 8 20 2 0 -5 6 -10 13 -10 11 0 47 138 47 179 0 25 -28 9
-33 -19z m-17 -73 c0 -12 -7 -33 -16 -45 -13 -18 -19 -21 -30 -11 -18 15 -18
29 2 57 20 29 44 28 44 -1z"/>
<path d="M5805 688 c-4 -13 -35 -167 -35 -174 0 -2 6 -4 14 -4 16 0 20 9 36
95 6 33 14 68 16 78 6 20 -24 25 -31 5z"/>
<path d="M3604 680 c-32 -13 -64 -59 -64 -92 0 -40 40 -78 82 -78 46 0 56 9
64 58 7 42 6 42 -25 42 -32 0 -42 -14 -17 -23 23 -9 8 -47 -18 -47 -30 0 -46
18 -46 52 0 39 32 68 75 68 24 0 35 5 35 15 0 17 -50 20 -86 5z"/>
<path d="M4273 603 c-41 -88 -40 -120 1 -68 27 34 69 32 74 -2 2 -13 10 -23
19 -23 13 0 14 9 9 58 -14 113 -16 122 -41 122 -18 0 -29 -15 -62 -87z m67 12
c0 -28 -4 -35 -20 -35 -23 0 -25 9 -8 45 16 35 28 31 28 -10z"/>
<path d="M5285 680 c-5 -8 -35 -151 -35 -166 0 -11 89 -2 108 12 23 16 29 53
12 70 -8 8 -6 15 5 24 21 17 19 47 -4 60 -25 13 -78 13 -86 0z m65 -25 c16
-19 4 -35 -26 -35 -27 0 -28 3 -14 31 13 23 23 24 40 4z m-3 -80 c4 -16 -10
-33 -32 -37 -16 -2 -21 3 -23 25 -3 26 -1 28 24 25 15 -2 29 -7 31 -13z"/>
<path d="M5743 678 c2 -7 10 -13 17 -13 7 0 15 6 18 13 2 7 -5 12 -18 12 -13
0 -20 -5 -17 -12z"/>
<path d="M3712 578 c-6 -34 -10 -64 -7 -66 11 -12 35 10 35 33 0 14 11 37 25
51 25 25 32 44 17 44 -4 0 -13 -5 -20 -12 -9 -9 -12 -9 -12 0 0 7 -6 12 -13
12 -9 0 -18 -23 -25 -62z"/>
<path d="M3805 603 c-4 -21 -8 -42 -9 -48 -10 -34 37 -58 62 -33 9 9 12 9 12
0 0 -7 6 -12 14 -12 13 0 36 74 36 115 0 33 -29 14 -36 -22 -7 -42 -31 -76
-46 -66 -6 3 -8 26 -4 54 5 40 4 49 -8 49 -10 0 -17 -14 -21 -37z"/>
<path d="M3945 615 c-30 -132 -31 -155 -11 -155 8 0 16 10 18 22 2 16 12 24
35 29 45 9 61 25 69 65 9 47 -7 63 -62 61 -36 -2 -46 -6 -49 -22z m73 -36 c-3
-34 -31 -60 -46 -44 -6 6 -6 24 0 43 6 23 14 32 29 32 17 0 20 -5 17 -31z"/>
<path d="M4091 614 c-25 -32 -27 -67 -5 -88 35 -36 99 -7 110 50 12 62 -65 89
-105 38z m67 -31 c4 -37 -20 -62 -43 -43 -19 16 -19 30 1 58 21 30 38 23 42
-15z"/>
<path d="M4424 617 c-31 -27 -35 -70 -10 -95 13 -14 20 -14 36 -4 16 10 20 10
20 -1 0 -21 -22 -37 -52 -37 -15 0 -28 -4 -28 -10 0 -18 76 -11 93 8 16 17 37
100 37 143 0 28 -61 25 -96 -4z m62 -10 c9 -24 -14 -67 -36 -67 -25 0 -27 35
-3 62 19 21 32 23 39 5z"/>
<path d="M4546 618 c-3 -13 -6 -40 -6 -61 0 -42 20 -58 51 -39 11 7 20 8 24 2
12 -20 23 -9 34 34 15 61 14 86 -4 86 -8 0 -15 -6 -15 -12 0 -7 -5 -30 -11
-50 -7 -28 -15 -38 -30 -38 -19 0 -20 4 -14 50 6 41 4 50 -8 50 -8 0 -17 -10
-21 -22z"/>
<path d="M4695 615 c-17 -16 -25 -35 -25 -60 0 -41 19 -53 56 -37 15 7 24 8
24 2 0 -6 6 -10 14 -10 8 0 15 17 19 48 3 26 9 55 12 65 6 14 1 17 -34 17 -31
0 -48 -6 -66 -25z m65 -9 c0 -33 -20 -66 -40 -66 -24 0 -26 26 -4 58 17 25 44
30 44 8z"/>
<path d="M4826 624 c-21 -20 -20 -31 4 -51 29 -25 26 -47 -5 -39 -18 5 -25 2
-25 -9 0 -18 41 -20 71 -5 25 14 24 46 -1 60 -11 6 -20 17 -20 25 0 8 9 15 20
15 11 0 20 5 20 10 0 16 -47 12 -64 -6z"/>
<path d="M5102 617 c-24 -25 -29 -76 -10 -95 19 -19 66 -14 88 8 22 22 27 79
8 98 -19 19 -63 14 -86 -11z m66 -28 c2 -13 -4 -33 -11 -44 -13 -16 -17 -17
-31 -6 -20 17 -20 31 0 59 19 28 38 24 42 -9z"/>
<path d="M5415 628 c-9 -29 -23 -113 -20 -117 11 -11 35 12 35 34 0 14 13 39
31 57 29 31 24 53 -6 28 -11 -9 -15 -9 -15 -1 0 15 -20 14 -25 -1z"/>
<path d="M5504 615 c-45 -45 -15 -129 36 -98 12 8 21 9 25 3 12 -20 23 -9 29
28 4 20 9 49 12 65 5 26 4 27 -36 27 -30 0 -47 -6 -66 -25z m66 -18 c0 -33
-23 -62 -44 -54 -20 8 -13 45 12 65 23 18 32 15 32 -11z"/>
<path d="M5636 624 c-22 -21 -20 -29 10 -53 28 -22 24 -44 -8 -39 -12 2 -23
-3 -25 -9 -6 -17 59 -17 75 -1 18 18 14 46 -8 60 -28 18 -25 38 5 38 14 0 25
5 25 10 0 16 -57 12 -74 -6z"/>
<path d="M5736 632 c-3 -5 -8 -35 -12 -66 -6 -46 -4 -56 8 -56 14 0 27 53 29
115 1 13 -18 18 -25 7z"/>
</g>
</svg>
